<?xml version="1.0" standalone="no"?>
<!DOCTYPE svg PUBLIC "-//W3C//DTD SVG 20010904//EN"
 "http://www.w3.org/TR/2001/REC-SVG-20010904/DTD/svg10.dtd">
<svg version="1.0" xmlns="http://www.w3.org/2000/svg"
 width="193.000000pt" height="193.000000pt" viewBox="0 0 193.000000 193.000000"
 preserveAspectRatio="xMidYMid meet">
<metadata>
Created by potrace 1.11, written by Peter Selinger 2001-2013
</metadata>
<g transform="translate(0.000000,193.000000) scale(0.100000,-0.100000)"
fill="#000000" stroke="none">
<path d="M505 1898 c-50 -291 -49 -332 2 -448 17 -37 117 -208 175 -300 42
-66 52 -94 51 -140 -1 -29 -12 -45 -65 -95 -65 -62 -124 -114 -222 -199 -64
-55 -123 -131 -148 -191 -20 -46 -64 -322 -54 -332 6 -7 1158 -192 1164 -188
2 1 13 68 26 147 25 159 25 213 1 285 -18 53 -96 201 -130 248 -12 17 -25 37
-29 45 -3 8 -15 29 -26 45 -37 57 -49 83 -59 123 -13 59 7 89 125 187 26 22
57 49 70 60 12 11 46 40 76 64 68 57 129 133 156 194 22 49 71 332 59 343 -6
7 -1116 184 -1149 184 -11 0 -19 -11 -23 -32z m225 -232 c14 -2 43 -7 65 -10
22 -4 51 -8 65 -11 47 -7 85 -13 125 -19 40 -6 65 -10 128 -20 17 -3 46 -7 62
-10 17 -2 44 -7 60 -10 28 -4 62 -10 130 -20 17 -2 46 -7 65 -10 19 -3 41 -7
48 -8 16 -2 15 -17 -2 -49 -7 -14 -16 -37 -19 -51 -4 -15 -39 -54 -79 -89 -40
-35 -77 -69 -83 -75 -5 -6 -55 -49 -110 -96 -117 -101 -154 -157 -160 -249 -6
-74 11 -124 74 -227 27 -43 61 -100 75 -127 15 -28 31 -57 36 -65 63 -101 73
-127 78 -199 4 -61 2 -72 -9 -65 -8 5 -22 7 -32 6 -9 -2 -20 5 -23 15 -26 80
-124 219 -235 336 l-75 78 -29 -16 c-17 -9 -48 -27 -70 -41 -22 -13 -47 -27
-55 -31 -34 -15 -208 -149 -240 -185 -31 -33 -40 -38 -63 -33 -15 4 -27 9 -27
11 0 20 54 131 72 148 35 34 136 124 208 186 92 79 137 126 145 150 3 11 10
20 15 20 14 0 32 98 27 152 -6 66 -10 75 -69 171 -26 43 -48 80 -48 82 0 2
-26 46 -58 97 -79 127 -81 132 -87 220 l-3 57 36 -4 c21 -3 48 -7 62 -9z"/>
</g>
</svg>
